<svg width="17" height="28" viewBox="0 0 17 28" fill="none" xmlns="http://www.w3.org/2000/svg">
<path fill-rule="evenodd" clip-rule="evenodd" d="M16.4468 0.512563C17.1844 1.19598 17.1844 2.30402 16.4468 2.98744L3.22454 15.2374C2.48688 15.9209 1.2909 15.9209 0.553245 15.2374C-0.184413 14.554 -0.184413 13.446 0.553245 12.7626L13.7755 0.512563C14.5131 -0.170854 15.7091 -0.170854 16.4468 0.512563Z" fill="black"/>
<path fill-rule="evenodd" clip-rule="evenodd" d="M16.4468 27.4874C15.7091 28.1709 14.5131 28.1709 13.7755 27.4874L0.553245 15.2374C-0.184413 14.554 -0.184413 13.446 0.553245 12.7626C1.2909 12.0791 2.48688 12.0791 3.22454 12.7626L16.4468 25.0126C17.1844 25.696 17.1844 26.804 16.4468 27.4874Z" fill="black"/>
</svg>
