<svg width="29" height="28" viewBox="0 0 29 28" fill="none" xmlns="http://www.w3.org/2000/svg">
<path fill-rule="evenodd" clip-rule="evenodd" d="M0.585786 0.585786C1.36684 -0.195262 2.63316 -0.195262 3.41421 0.585786L27.4142 24.5858C28.1953 25.3668 28.1953 26.6332 27.4142 27.4142C26.6332 28.1953 25.3668 28.1953 24.5858 27.4142L0.585786 3.41421C-0.195262 2.63316 -0.195262 1.36684 0.585786 0.585786Z" fill="black"/>
<path fill-rule="evenodd" clip-rule="evenodd" d="M27.5858 0.585786C26.8048 -0.195262 25.5385 -0.195262 24.7574 0.585786L0.757419 24.5858C-0.023629 25.3668 -0.0236298 26.6332 0.757419 27.4142C1.53847 28.1953 2.8048 28.1953 3.58585 27.4142L27.5858 3.41421C28.3669 2.63316 28.3669 1.36684 27.5858 0.585786Z" fill="black"/>
</svg>
