<svg width="12" height="12" viewBox="0 0 12 12" fill="none" xmlns="http://www.w3.org/2000/svg">
<path fill-rule="evenodd" clip-rule="evenodd" d="M1.07873 1.36902C1.07873 1.36902 1.0787 1.36894 1.07868 1.36879L1.07887 1.37409L1.07885 7.40473C1.0796 7.40888 1.0822 7.42286 1.09061 7.44588C1.10425 7.48322 1.12639 7.52495 1.15551 7.56178C1.21001 7.63069 1.26874 7.66273 1.34761 7.66297C1.34791 7.66297 1.3482 7.66297 1.3485 7.66297L7.5119 7.63652C7.51899 7.63449 7.53182 7.63031 7.54969 7.62222C7.5849 7.60626 7.62412 7.58192 7.65919 7.55038C7.72508 7.49112 7.76631 7.41851 7.76631 7.31707V1.38359C7.76631 1.31247 7.73409 1.2434 7.64321 1.17097C7.5976 1.13462 7.54557 1.10535 7.49745 1.08537C7.46633 1.07246 7.44486 1.06669 7.43487 1.0643H1.3216C1.28454 1.0643 1.2617 1.07292 1.24252 1.08447C1.21955 1.09831 1.19087 1.12372 1.16147 1.16597C1.13194 1.20842 1.10859 1.25816 1.09368 1.30506C1.08052 1.34647 1.07905 1.36903 1.07873 1.36902ZM0.272286 0.563523C0.468437 0.281648 0.814984 0 1.3216 0H7.48899L7.50818 0.00135233C7.7604 0.0191292 8.07156 0.14426 8.32093 0.342998C8.58507 0.553498 8.84494 0.901272 8.84494 1.38359V7.31707C8.84494 7.76907 8.63449 8.11331 8.38578 8.33698C8.15364 8.54574 7.8542 8.68062 7.58901 8.69931L7.57099 8.70058L1.34967 8.72727H1.3485C0.866942 8.72727 0.516931 8.48435 0.305123 8.21649C0.112676 7.97312 -0.00588878 7.65972 0.000225649 7.38959L0.000250799 1.39099C-0.00556856 1.1395 0.0923895 0.822041 0.272286 0.563523Z" fill="#E2E2E2"/>
<path fill-rule="evenodd" clip-rule="evenodd" d="M10.7692 4.36408H10.0585V3.29978H10.7523C11.2597 3.28881 12 3.70892 12 4.60311V10.6886L11.9986 10.7075C11.9794 10.9733 11.8332 11.2788 11.6244 11.5132C11.4015 11.7634 11.0461 12 10.5708 12H4.53053C4.05552 12 3.71178 11.7699 3.49964 11.5055C3.30154 11.2586 3.20023 10.9635 3.18363 10.7341L3.18225 10.7152V9.97783H4.26088V10.6669C4.26146 10.6699 4.26226 10.6738 4.26337 10.6784C4.26671 10.6924 4.27202 10.71 4.27978 10.7299C4.29574 10.7706 4.31827 10.8112 4.34528 10.8448C4.37175 10.8778 4.39844 10.8993 4.42357 10.9125C4.44634 10.9245 4.47884 10.9357 4.53053 10.9357H10.5708C10.6564 10.9357 10.737 10.8973 10.8143 10.8105C10.853 10.7671 10.8833 10.7189 10.9033 10.6761C10.9136 10.6541 10.9188 10.6386 10.9214 10.6302V4.60311C10.9214 4.53757 10.9085 4.49586 10.8965 4.47005C10.8841 4.44352 10.8676 4.42293 10.8485 4.40636C10.8284 4.38891 10.8059 4.37649 10.7862 4.36922C10.778 4.36619 10.7722 4.36474 10.7692 4.36408Z" fill="#E2E2E2"/>
<path d="M10.5978 3.83149C10.5978 4.12538 10.3563 4.36364 10.0585 4.36364C9.76062 4.36364 9.51917 4.12538 9.51917 3.83149C9.51917 3.53759 9.76062 3.29933 10.0585 3.29933C10.3563 3.29933 10.5978 3.53759 10.5978 3.83149Z" fill="#E2E2E2"/>
<path d="M4.26088 10.0044C4.26088 10.2983 4.01942 10.5366 3.72157 10.5366C3.42371 10.5366 3.18225 10.2983 3.18225 10.0044C3.18225 9.71054 3.42371 9.47228 3.72157 9.47228C4.01942 9.47228 4.26088 9.71054 4.26088 10.0044Z" fill="#E2E2E2"/>
</svg>
