<svg width="14" height="13" viewBox="0 0 14 13" fill="none" xmlns="http://www.w3.org/2000/svg">
<path d="M8.60656 0.000875207H5.43169C4.72787 0.000875207 4.55191 0.454364 4.55191 0.681108V4.87587H3.13661C3.04529 4.87587 2.96697 4.87911 2.88218 4.91802C2.65796 5.02092 2.44809 5.28742 2.44809 5.63169C2.44809 5.96425 2.7031 6.27413 2.8306 6.3875L6.54 9.97893C6.61136 10.048 6.66448 10.107 6.7623 10.1351C6.82188 10.1523 6.90227 10.1666 7 10.1666C7.0847 10.1666 7.15637 10.1558 7.21277 10.1418C7.32383 10.1142 7.37964 10.0565 7.45902 9.97893C8.59309 8.87147 10.7467 6.76729 11.1311 6.3875C11.6993 5.82617 11.6537 4.96847 10.7869 4.81199C10.7228 4.80041 10.6607 4.80029 10.5956 4.80029H9.40984V0.681108C9.40984 0.106689 8.87432 -0.0117217 8.60656 0.000875207Z" fill="#E2E2E2"/>
<path fill-rule="evenodd" clip-rule="evenodd" d="M0.765027 7.93605C1.18754 7.93605 1.53005 8.27444 1.53005 8.69186V10.7326C1.53005 10.7452 1.52974 10.7577 1.52912 10.7702L1.53062 10.7703C1.52469 10.8876 1.56082 11.0822 1.66965 11.2272C1.74939 11.3335 1.91995 11.4884 2.37158 11.4884H11.6284C12.0801 11.4884 12.2506 11.3335 12.3303 11.2272C12.4392 11.0822 12.4753 10.8876 12.4694 10.7703L12.4709 10.7702C12.4703 10.7577 12.4699 10.7452 12.4699 10.7326V8.69186C12.4699 8.27444 12.8125 7.93605 13.235 7.93605C13.6575 7.93605 14 8.27444 14 8.69186V10.7326C14 10.7405 13.9999 10.7484 13.9996 10.7563C14.0066 11.1393 13.9044 11.6677 13.5595 12.1274C13.1667 12.651 12.522 13 11.6284 13H2.14208C2.06588 13 1.99228 12.989 1.92282 12.9685C1.25886 12.8717 0.764185 12.5588 0.440491 12.1274C0.0955604 11.6677 -0.00663457 11.1393 0.000368806 10.7563C0.000123519 10.7484 0 10.7405 0 10.7326V8.69186C0 8.27444 0.342514 7.93605 0.765027 7.93605Z" fill="#E2E2E2"/>
</svg>
