<svg width="16" height="16" viewBox="0 0 16 16" fill="none" xmlns="http://www.w3.org/2000/svg">
<path fill-rule="evenodd" clip-rule="evenodd" d="M4.74112 2.81535C4.99204 2.68543 5.65477 2.08523 5.68214 1.33169C5.68214 1.01772 5.82585 0.344291 6.40071 0.162401C6.59461 0.108268 7.18771 0 8.00893 0C8.83015 0 9.41185 0.108268 9.61716 0.162401C9.83387 0.249016 10.3083 0.604133 10.3357 1.33169C10.3585 1.65649 10.6095 2.50098 11.2596 2.76082C11.503 2.90307 12.2681 3.12284 12.9708 2.77126C13.2579 2.61537 13.9451 2.39943 14.3968 2.78278C14.5426 2.91567 14.9361 3.35061 15.3438 4.02727C15.7516 4.70393 15.9292 5.32561 15.9816 5.52165C16.01 5.74322 15.933 6.18938 15.2813 6.57317C14.9956 6.75323 14.4302 7.37458 14.4543 7.99015C14.4432 8.26127 14.6227 9.06018 15.2904 9.46863C15.5744 9.62952 16.11 10.0917 15.98 10.6535C15.9296 10.8393 15.7236 11.4139 15.3028 12.0833C14.882 12.7527 14.4685 13.1993 14.3143 13.3389C14.1249 13.4712 13.6297 13.6273 12.9575 13.2768C12.6519 13.129 11.7443 12.9755 11.1912 13.2976C10.9378 13.4231 10.412 13.9606 10.3699 14.7136C10.3638 15.0275 10.1245 15.6926 9.54625 15.8644C9.35133 15.9151 8.72201 16.0129 7.90092 15.9986C7.07984 15.9842 6.57071 15.9081 6.3665 15.8504C6.1515 15.76 5.66116 15.344 5.64793 14.6161C5.63143 14.291 5.40861 13.577 4.8394 13.2811C4.5966 13.138 3.73682 12.9568 3.03269 13.3058C2.74493 13.4606 2.05687 13.674 1.60671 13.2889C1.46148 13.1555 1.0698 12.7191 0.664859 12.0409C0.259918 11.3628 0.0554408 10.8008 0.0038197 10.6045C-0.0236571 10.3829 0.0847174 9.84418 0.738031 9.46281C1.02447 9.28382 1.61378 8.61083 1.59228 7.99517C1.60264 7.72404 1.42678 6.98383 0.758071 6.57692C0.473619 6.41668 -0.0631361 5.95569 0.0654526 5.3936C0.115365 5.2077 0.301499 4.63296 0.720606 3.9626C1.13971 3.29223 1.47339 2.92323 1.72441 2.74006C1.91348 2.60736 2.45989 2.4292 3.13301 2.77816C3.43891 2.9253 4.14236 3.08563 4.74112 2.81535ZM8.00894 10.8809C9.67194 10.8809 11.0201 9.60121 11.0201 8.02263C11.0201 6.44405 9.67194 5.16437 8.00894 5.16437C6.34593 5.16437 4.99779 6.44405 4.99779 8.02263C4.99779 9.60121 6.34593 10.8809 8.00894 10.8809Z" fill="#E2E2E2"/>
</svg>
