<svg width="15" height="13" viewBox="0 0 15 13" fill="none" xmlns="http://www.w3.org/2000/svg">
<path d="M8.26304 1.4014V3.73492L7.72309 3.73492C7.60905 3.73316 7.51207 3.74805 7.41937 3.75687C1.68483 4.54734 0.773854 9.24832 1.04123 11.5214C1.05876 11.7016 1.22851 11.8753 1.3112 11.9397C1.49119 12.0362 1.9119 12.0877 2.15487 11.5214C2.45859 10.8135 3.4035 9.91262 4.28092 9.39781C5.15834 8.883 5.86702 8.72212 6.30573 8.6256C6.6567 8.54838 7.75684 8.55052 8.26304 8.56125C8.25179 9.31201 8.23605 10.8393 8.26304 10.9422C8.29679 11.0709 8.53302 11.2962 8.76925 11.2962C8.95823 11.2962 9.07297 11.2318 9.10671 11.1996L13.8988 6.46984C13.9325 6.42694 14 6.30253 14 6.14808C14 5.99364 13.9325 5.89068 13.8988 5.8585C12.3577 4.3248 9.2417 1.23166 9.10671 1.1287C8.97173 1.02574 8.80299 1 8.7355 1C8.35753 1 8.26304 1.2676 8.26304 1.4014Z" fill="#E2E2E2" stroke="#E2E2E2"/>
</svg>
