<svg width="27" height="27" viewBox="0 0 27 27" fill="none" xmlns="http://www.w3.org/2000/svg">
<path d="M0 0H26.6214V26.6214H0V0Z" fill="white" fill-opacity="0.01"/>
<path fill-rule="evenodd" clip-rule="evenodd" d="M13.3107 2.21845C7.18461 2.21845 2.21845 7.18461 2.21845 13.3107C2.21845 19.4368 7.18461 24.4029 13.3107 24.4029C19.4368 24.4029 24.4029 19.4368 24.4029 13.3107C24.4029 7.18461 19.4368 2.21845 13.3107 2.21845ZM0 13.3107C0 5.95941 5.95941 0 13.3107 0C20.6619 0 26.6214 5.95941 26.6214 13.3107C26.6214 20.6619 20.6619 26.6214 13.3107 26.6214C5.95941 26.6214 0 20.6619 0 13.3107Z" fill="#E2E2E2"/>
<path fill-rule="evenodd" clip-rule="evenodd" d="M10.6391 25.219C10.5319 25.0805 10.5319 23.8468 10.6391 21.5178C9.49009 21.5575 8.7641 21.4777 8.46117 21.2786C8.00683 20.9798 7.55194 20.0584 7.14835 19.4091C6.74476 18.7597 5.84895 18.6571 5.48723 18.5119C5.1255 18.3667 5.0347 17.775 6.48398 18.2225C7.93329 18.6701 8.00395 19.8887 8.46117 20.1737C8.91839 20.4586 10.0114 20.334 10.5069 20.1057C11.0023 19.8774 10.9659 19.0275 11.0543 18.6908C11.166 18.3765 10.7722 18.3067 10.7636 18.3042C10.2799 18.3042 7.7389 17.7516 7.04092 15.2909C6.343 12.8303 7.24208 11.222 7.72171 10.5306C8.04144 10.0697 8.01316 9.08737 7.63685 7.58354C9.00319 7.40895 10.0576 7.839 10.8001 8.87379C10.8008 8.87973 11.7735 8.29539 13.3107 8.29539C14.848 8.29539 15.3933 8.77135 15.8142 8.87379C16.2351 8.97623 16.5717 7.06243 19.1711 7.58354C18.6284 8.65017 18.1739 9.98302 18.5208 10.5306C18.8676 11.0783 20.229 12.8196 19.3928 15.2909C18.8352 16.9385 17.7393 17.9429 16.1049 18.3042C15.9175 18.364 15.8238 18.4605 15.8238 18.5936C15.8238 18.7933 16.0772 18.8151 16.4422 19.7506C16.6855 20.3743 16.7031 22.1556 16.4949 25.0945C15.9675 25.2287 15.5572 25.3189 15.264 25.3649C14.7441 25.4466 14.1796 25.4925 13.6249 25.5101C13.0703 25.5278 12.8777 25.5258 12.111 25.4545C11.5998 25.4069 11.1092 25.3284 10.6391 25.219Z" fill="#E2E2E2"/>
</svg>
